<mxfile host="app.diagrams.net" modified="2024-02-07T16:36:37.893Z" agent="Mozilla/5.0 (X11; Linux x86_64) AppleWebKit/537.36 (KHTML, like Gecko) Chrome/121.0.0.0 Safari/537.36" etag="hlAX2In5-Bca15WvPzYk" version="23.1.1" type="device">
  <diagram name="Page-1" id="QCcH2krbrsbHMgq8IdjP">
    <mxGraphModel dx="625" dy="345" grid="1" gridSize="10" guides="1" tooltips="1" connect="1" arrows="1" fold="1" page="1" pageScale="1" pageWidth="1200" pageHeight="1600" math="0" shadow="0">
      <root>
        <mxCell id="0" />
        <mxCell id="1" parent="0" />
        <mxCell id="yPR2Kk1jLTolFPaNar8W-15" value="" style="rounded=0;whiteSpace=wrap;html=1;fillColor=none;dashed=1;" vertex="1" parent="1">
          <mxGeometry x="450" y="265" width="210" height="20" as="geometry" />
        </mxCell>
        <mxCell id="yPR2Kk1jLTolFPaNar8W-2" value="" style="endArrow=classic;startArrow=classic;html=1;rounded=0;movable=0;resizable=0;rotatable=0;deletable=0;editable=0;locked=1;connectable=0;" edge="1" parent="1">
          <mxGeometry width="50" height="50" relative="1" as="geometry">
            <mxPoint x="280" y="275" as="sourcePoint" />
            <mxPoint x="840" y="275" as="targetPoint" />
          </mxGeometry>
        </mxCell>
        <mxCell id="yPR2Kk1jLTolFPaNar8W-3" value="" style="ellipse;whiteSpace=wrap;html=1;fillColor=#cce5ff;strokeColor=#36393d;" vertex="1" parent="1">
          <mxGeometry x="550" y="270" width="10" height="10" as="geometry" />
        </mxCell>
        <mxCell id="yPR2Kk1jLTolFPaNar8W-6" value="" style="ellipse;whiteSpace=wrap;html=1;fillColor=#f8cecc;strokeColor=#b85450;" vertex="1" parent="1">
          <mxGeometry x="310" y="270" width="10" height="10" as="geometry" />
        </mxCell>
        <mxCell id="yPR2Kk1jLTolFPaNar8W-7" value="" style="ellipse;whiteSpace=wrap;html=1;fillColor=#f8cecc;strokeColor=#b85450;" vertex="1" parent="1">
          <mxGeometry x="810" y="270" width="10" height="10" as="geometry" />
        </mxCell>
        <mxCell id="yPR2Kk1jLTolFPaNar8W-8" value="" style="ellipse;whiteSpace=wrap;html=1;fillColor=#f8cecc;strokeColor=#b85450;" vertex="1" parent="1">
          <mxGeometry x="800" y="270" width="10" height="10" as="geometry" />
        </mxCell>
        <mxCell id="yPR2Kk1jLTolFPaNar8W-9" value="" style="ellipse;whiteSpace=wrap;html=1;fillColor=#cce5ff;strokeColor=#36393d;" vertex="1" parent="1">
          <mxGeometry x="560" y="270" width="10" height="10" as="geometry" />
        </mxCell>
        <mxCell id="yPR2Kk1jLTolFPaNar8W-10" value="" style="ellipse;whiteSpace=wrap;html=1;fillColor=#cce5ff;strokeColor=#36393d;" vertex="1" parent="1">
          <mxGeometry x="520" y="270" width="10" height="10" as="geometry" />
        </mxCell>
        <mxCell id="yPR2Kk1jLTolFPaNar8W-11" value="" style="ellipse;whiteSpace=wrap;html=1;fillColor=#cce5ff;strokeColor=#36393d;" vertex="1" parent="1">
          <mxGeometry x="580" y="270" width="10" height="10" as="geometry" />
        </mxCell>
        <mxCell id="yPR2Kk1jLTolFPaNar8W-12" value="" style="ellipse;whiteSpace=wrap;html=1;fillColor=#cce5ff;strokeColor=#36393d;" vertex="1" parent="1">
          <mxGeometry x="500" y="270" width="10" height="10" as="geometry" />
        </mxCell>
        <mxCell id="yPR2Kk1jLTolFPaNar8W-17" value="" style="ellipse;whiteSpace=wrap;html=1;fillColor=#cce5ff;strokeColor=#36393d;" vertex="1" parent="1">
          <mxGeometry x="540" y="270" width="10" height="10" as="geometry" />
        </mxCell>
        <mxCell id="yPR2Kk1jLTolFPaNar8W-18" value="" style="endArrow=classic;html=1;rounded=0;" edge="1" parent="1" source="yPR2Kk1jLTolFPaNar8W-3" target="yPR2Kk1jLTolFPaNar8W-19">
          <mxGeometry width="50" height="50" relative="1" as="geometry">
            <mxPoint x="560" y="250" as="sourcePoint" />
            <mxPoint x="555" y="230" as="targetPoint" />
          </mxGeometry>
        </mxCell>
        <mxCell id="yPR2Kk1jLTolFPaNar8W-19" value="Median" style="text;html=1;strokeColor=none;fillColor=none;align=center;verticalAlign=middle;whiteSpace=wrap;rounded=0;" vertex="1" parent="1">
          <mxGeometry x="525" y="200" width="60" height="30" as="geometry" />
        </mxCell>
        <mxCell id="yPR2Kk1jLTolFPaNar8W-20" value="" style="endArrow=none;html=1;rounded=0;fillColor=#e51400;strokeColor=#FF0000;" edge="1" parent="1">
          <mxGeometry width="50" height="50" relative="1" as="geometry">
            <mxPoint x="550" y="250" as="sourcePoint" />
            <mxPoint x="550" y="310" as="targetPoint" />
          </mxGeometry>
        </mxCell>
        <mxCell id="yPR2Kk1jLTolFPaNar8W-21" value="Trimmed Mean" style="text;html=1;strokeColor=none;fillColor=none;align=center;verticalAlign=middle;whiteSpace=wrap;rounded=0;" vertex="1" parent="1">
          <mxGeometry x="520" y="310" width="60" height="30" as="geometry" />
        </mxCell>
        <mxCell id="yPR2Kk1jLTolFPaNar8W-22" value="" style="endArrow=classic;html=1;rounded=0;exitX=1;exitY=0.5;exitDx=0;exitDy=0;" edge="1" parent="1" source="yPR2Kk1jLTolFPaNar8W-15" target="yPR2Kk1jLTolFPaNar8W-23">
          <mxGeometry width="50" height="50" relative="1" as="geometry">
            <mxPoint x="660" y="260" as="sourcePoint" />
            <mxPoint x="660" y="240" as="targetPoint" />
          </mxGeometry>
        </mxCell>
        <mxCell id="yPR2Kk1jLTolFPaNar8W-23" value="Median + scaled MAD" style="text;html=1;strokeColor=none;fillColor=none;align=center;verticalAlign=middle;whiteSpace=wrap;rounded=0;" vertex="1" parent="1">
          <mxGeometry x="600" y="220" width="120" height="30" as="geometry" />
        </mxCell>
        <mxCell id="yPR2Kk1jLTolFPaNar8W-24" value="Median - scaled MAD" style="text;html=1;strokeColor=none;fillColor=none;align=center;verticalAlign=middle;whiteSpace=wrap;rounded=0;" vertex="1" parent="1">
          <mxGeometry x="385" y="220" width="130" height="30" as="geometry" />
        </mxCell>
        <mxCell id="yPR2Kk1jLTolFPaNar8W-25" value="" style="endArrow=classic;html=1;rounded=0;exitX=0;exitY=0.5;exitDx=0;exitDy=0;" edge="1" parent="1" source="yPR2Kk1jLTolFPaNar8W-15" target="yPR2Kk1jLTolFPaNar8W-24">
          <mxGeometry width="50" height="50" relative="1" as="geometry">
            <mxPoint x="560" y="310" as="sourcePoint" />
            <mxPoint x="610" y="260" as="targetPoint" />
          </mxGeometry>
        </mxCell>
      </root>
    </mxGraphModel>
  </diagram>
</mxfile>
